<svg xmlns="http://www.w3.org/2000/svg" viewBox="0 0 1024 1024" width="1024" height="1024">
  <rect width="1024" height="1024" rx="164" fill="#05080f" />
  <rect x="7" y="7" width="1010" height="1010" rx="157" fill="none" stroke="#60a5fa" stroke-opacity="0.22" stroke-width="4" />
  <g fill="#e2e8f0" transform="translate(369.692 158.72)"><path transform="translate(0.00 0) scale(0.07200 -0.07200)" d="M198 0L66 0L66 700L198 700Z" /><path transform="translate(18.01 0) scale(0.07200 -0.07200)" d="" /><path transform="translate(35.30 0) scale(0.07200 -0.07200)" d="M198 0L66 0L66 700L198 700L198 411L458 411L458 700L590 700L590 0L458 0L458 291L198 291Z" /><path transform="translate(81.53 0) scale(0.07200 -0.07200)" d="M198 0L66 0L66 700L198 700Z" /><path transform="translate(99.54 0) scale(0.07200 -0.07200)" d="M360 0L228 0L228 580L24 580L24 700L564 700L564 580L360 580Z" /><path transform="translate(140.87 0) scale(0.07200 -0.07200)" d="" /><path transform="translate(158.16 0) scale(0.07200 -0.07200)" d="M360 0L228 0L228 580L24 580L24 700L564 700L564 580L360 580Z" /><path transform="translate(199.50 0) scale(0.07200 -0.07200)" d="M198 0L66 0L66 700L198 700L198 411L458 411L458 700L590 700L590 0L458 0L458 291L198 291Z" /><path transform="translate(245.73 0) scale(0.07200 -0.07200)" d="M522 0L66 0L66 700L516 700L516 580L198 580L198 413L488 413L488 293L198 293L198 120L522 120Z" /></g>
  <g fill="#60a5fa" transform="translate(304.812 250.88)"><path transform="translate(0.00 0) scale(0.07200 -0.07200)" d="M360 0L228 0L228 580L24 580L24 700L564 700L564 580L360 580Z" /><path transform="translate(41.34 0) scale(0.07200 -0.07200)" d="M338-14Q206-14 128 58.5Q50 131 50 266L50 434Q50 569 128 641.5Q206 714 338 714Q470 714 548 641.5Q626 569 626 434L626 266Q626 131 548 58.5Q470-14 338-14ZM338 104Q412 104 453 147Q494 190 494 262L494 438Q494 510 453 553Q412 596 338 596Q265 596 223.5 553Q182 510 182 438L182 262Q182 190 223.5 147Q265 104 338 104Z" /><path transform="translate(89.01 0) scale(0.07200 -0.07200)" d="M198 0L66 0L66 700L198 700L198 422L216 422L443 700L612 700L320 355L622 0L448 0L216 284L198 284Z" /><path transform="translate(133.08 0) scale(0.07200 -0.07200)" d="M522 0L66 0L66 700L516 700L516 580L198 580L198 413L488 413L488 293L198 293L198 120L522 120Z" /><path transform="translate(171.97 0) scale(0.07200 -0.07200)" d="M196 0L66 0L66 700L317 700L456 90L474 90L474 700L604 700L604 0L353 0L214 610L196 610Z" /><path transform="translate(219.21 0) scale(0.07200 -0.07200)" d="" /><path transform="translate(236.50 0) scale(0.07200 -0.07200)" d="M518 0L66 0L66 700L198 700L198 120L518 120Z" /><path transform="translate(274.52 0) scale(0.07200 -0.07200)" d="M198 0L66 0L66 700L198 700Z" /><path transform="translate(292.53 0) scale(0.07200 -0.07200)" d="M194 0L66 0L66 700L311 700L432 90L450 90L571 700L816 700L816 0L688 0L688 603L670 603L550 0L332 0L212 603L194 603Z" /><path transform="translate(355.03 0) scale(0.07200 -0.07200)" d="M198 0L66 0L66 700L198 700Z" /><path transform="translate(373.04 0) scale(0.07200 -0.07200)" d="M360 0L228 0L228 580L24 580L24 700L564 700L564 580L360 580Z" /></g>
  <defs><radialGradient id="tokHalo" cx="512" cy="634.88" r="307.2" gradientUnits="userSpaceOnUse"><stop offset="0%" stop-color="#ef4444" stop-opacity="0.28" /><stop offset="100%" stop-color="#ef4444" stop-opacity="0" /></radialGradient></defs><circle cx="512.0" cy="634.9" r="307.2" fill="url(#tokHalo)" /><g fill="#94a3b8" transform="translate(296.96000000000004 432.128)"><path transform="translate(0.00 0) scale(0.02700 -0.02700)" d="M303-14Q231-14 172.5 16Q114 46 80 103Q46 160 46 241L46 255Q46 336 80 393Q114 450 172.5 480Q231 510 303 510Q374 510 425 485Q476 460 507.5 416.5Q539 373 549 318L427 292Q423 322 409 346Q395 370 369.5 384Q344 398 306 398Q268 398 237.5 381.5Q207 365 189.5 332.5Q172 300 172 253L172 243Q172 196 189.5 163.5Q207 131 237.5 114.5Q268 98 306 98Q363 98 392.5 127.5Q422 157 430 205L552 176Q539 123 507.5 79.5Q476 36 425 11Q374-14 303-14Z" /><path transform="translate(15.82 0) scale(0.02700 -0.02700)" d="M306-14Q232-14 173 16Q114 46 80 103Q46 160 46 240L46 256Q46 336 80 393Q114 450 173 480Q232 510 306 510Q380 510 439 480Q498 450 532 393Q566 336 566 256L566 240Q566 160 532 103Q498 46 439 16Q380-14 306-14ZM306 98Q364 98 402 135.5Q440 173 440 243L440 253Q440 323 402.5 360.5Q365 398 306 398Q248 398 210 360.5Q172 323 172 253L172 243Q172 173 210 135.5Q248 98 306 98Z" /><path transform="translate(32.35 0) scale(0.02700 -0.02700)" d="M196 0L70 0L70 496L194 496L194 431L212 431Q224 457 257 480.5Q290 504 357 504Q415 504 458.5 477.5Q502 451 526 404.5Q550 358 550 296L550 0L424 0L424 286Q424 342 396.5 370Q369 398 318 398Q260 398 228 359.5Q196 321 196 252Z" /><path transform="translate(48.98 0) scale(0.02700 -0.02700)" d="M400 0L260 0Q211 0 180.5 30.5Q150 61 150 112L150 392L26 392L26 496L150 496L150 650L276 650L276 496L412 496L412 392L276 392L276 134Q276 104 304 104L400 104Z" /><path transform="translate(61.29 0) scale(0.02700 -0.02700)" d="M296-14Q222-14 165.5 17.5Q109 49 77.5 106.5Q46 164 46 242L46 254Q46 332 77 389.5Q108 447 164 478.5Q220 510 294 510Q367 510 421 477.5Q475 445 505 387.5Q535 330 535 254L535 211L174 211Q176 160 212 128Q248 96 300 96Q353 96 378 119Q403 142 416 170L519 116Q505 90 478.5 59.5Q452 29 408 7.5Q364-14 296-14ZM175 305L407 305Q403 348 372.5 374Q342 400 293 400Q242 400 212 374Q182 348 175 305Z" /><path transform="translate(76.87 0) scale(0.02700 -0.02700)" d="M174 0L26 0L206 250L28 496L174 496L287 331L305 331L418 496L564 496L386 250L566 0L418 0L305 167L287 167Z" /><path transform="translate(92.85 0) scale(0.02700 -0.02700)" d="M400 0L260 0Q211 0 180.5 30.5Q150 61 150 112L150 392L26 392L26 496L150 496L150 650L276 650L276 496L412 496L412 392L276 392L276 134Q276 104 304 104L400 104Z" /></g><rect x="297.0" y="450.6" width="430.1" height="51.2" rx="25.6" fill="#1e293b" stroke="#334155" stroke-width="2" /><rect x="297.0" y="450.6" width="430.1" height="51.2" rx="25.6" fill="#ef4444" /><rect x="735.0" y="458.2" width="35.8" height="35.8" rx="3" fill="#ef4444" opacity="0.8" /><rect x="786.2" y="458.2" width="28.2" height="35.8" rx="3" fill="#ef4444" opacity="0.5" /><ellipse cx="512.0" cy="884.6" rx="122.9" ry="27.0" fill="#000000" opacity="0.28" /><g transform="translate(512 778.24) scale(1.9692307692307693)">
    <path d="M-46 -16 q-18 6 -20 24" fill="none" stroke="#8a97ad" stroke-width="16" stroke-linecap="round" /><path d="M46 -16 q18 6 20 24" fill="none" stroke="#8a97ad" stroke-width="16" stroke-linecap="round" />
    <rect x="-46" y="-46" width="92" height="70" rx="20" fill="#8a97ad" />
    <rect x="-30" y="-34" width="60" height="46" rx="12" fill="#a7b3c6" opacity="0.5" />
    <path d="M24 -22 A15 15 0 1 0 24 8" fill="none" stroke="#60a5fa" stroke-width="7" stroke-linecap="round" />
    <path d="M-20 24 L-24 50" stroke="#8a97ad" stroke-width="16" stroke-linecap="round" />
    <path d="M20 24 L28 48" stroke="#8a97ad" stroke-width="16" stroke-linecap="round" />
    <line x1="0" y1="-106" x2="0" y2="-130" stroke="#94a3b8" stroke-width="6" stroke-linecap="round" />
    <circle cx="0" cy="-134" r="8" fill="#60a5fa" />
    <rect x="-40" y="-108" width="80" height="62" rx="19" fill="#8a97ad" />
    <rect x="-28" y="-98" width="56" height="30" rx="13" fill="#0e1a30" />
    <path d="M-20 -88 L-10 -78 M-20 -78 L-10 -88" stroke="#60a5fa" stroke-width="4" stroke-linecap="round" /><path d="M10 -88 L20 -78 M10 -78 L20 -88" stroke="#60a5fa" stroke-width="4" stroke-linecap="round" />
    <circle cx="-27" cy="-60" r="6" fill="#60a5fa" opacity="0.3" />
    <circle cx="27" cy="-60" r="6" fill="#60a5fa" opacity="0.3" />
    <ellipse cx="0" cy="-55" rx="4.5" ry="5.5" fill="#12203a" />
  </g><path transform="translate(602.6 545.9)" d="M0 0 c7 10 7 17 0 17 c-7 0 -7 -7 0 -17 Z" fill="#60a5fa" />
  <g transform="translate(650.2 890.5) scale(0.9102222222222223)">
  <g fill="none" stroke="#60a5fa" stroke-linecap="round">
    <path d="M72 18H41C22 18 10 31 10 48S22 78 41 78H72" stroke-width="8" />
    <path d="M65 31H43C33 31 26 38 26 48S33 65 43 65H65" stroke-width="6" opacity="0.72" />
    <path d="M58 43H46C42 43 40 45 40 48S42 53 46 53H58" stroke-width="4" opacity="0.46" />
  </g>
  <path d="M69 13L79 18L69 23Z" fill="#60a5fa" />
  <g fill="#e2e8f0" transform="translate(88 68)"><path transform="translate(0.00 0) scale(0.05400 -0.05400)" d="M303-14Q231-14 172.5 16Q114 46 80 103Q46 160 46 241L46 255Q46 336 80 393Q114 450 172.5 480Q231 510 303 510Q374 510 425 485Q476 460 507.5 416.5Q539 373 549 318L427 292Q423 322 409 346Q395 370 369.5 384Q344 398 306 398Q268 398 237.5 381.5Q207 365 189.5 332.5Q172 300 172 253L172 243Q172 196 189.5 163.5Q207 131 237.5 114.5Q268 98 306 98Q363 98 392.5 127.5Q422 157 430 205L552 176Q539 123 507.5 79.5Q476 36 425 11Q374-14 303-14Z" /><path transform="translate(29.24 0) scale(0.05400 -0.05400)" d="M196 0L70 0L70 700L196 700Z" /><path transform="translate(41.21 0) scale(0.05400 -0.05400)" d="M224-14Q171-14 129 4.5Q87 23 62.5 58.5Q38 94 38 145Q38 196 62.5 230.5Q87 265 130.5 282.5Q174 300 230 300L366 300L366 328Q366 363 344 385.5Q322 408 274 408Q227 408 204 386.5Q181 365 174 331L58 370Q70 408 96.5 439.5Q123 471 167.5 490.5Q212 510 276 510Q374 510 431 461Q488 412 488 319L488 134Q488 104 516 104L556 104L556 0L472 0Q435 0 411 18Q387 36 387 66L387 67L368 67Q364 55 350 35.5Q336 16 306 1Q276-14 224-14ZM246 88Q299 88 332.5 117.5Q366 147 366 196L366 206L239 206Q204 206 184 191Q164 176 164 149Q164 122 185 105Q206 88 246 88Z" /><path transform="translate(70.02 0) scale(0.05400 -0.05400)" d="M319 0L110 0L40 496L165 496L209 85L227 85L291 496L493 496L557 85L575 85L619 496L744 496L674 0L465 0L401 411L383 411Z" /><path transform="translate(109.96 0) scale(0.05400 -0.05400)" d="M270-14Q211-14 159.5 15.5Q108 45 77 102Q46 159 46 240L46 256Q46 337 77 394Q108 451 159 480.5Q210 510 270 510Q315 510 345.5 499.5Q376 489 395 473Q414 457 424 439L442 439L442 700L568 700L568 0L444 0L444 60L426 60Q409 32 373.5 9Q338-14 270-14ZM308 96Q366 96 405 133.5Q444 171 444 243L444 253Q444 325 405.5 362.5Q367 400 308 400Q250 400 211 362.5Q172 325 172 253L172 243Q172 171 211 133.5Q250 96 308 96Z" /></g>
  <g fill="#60a5fa" transform="translate(226 68)"><path transform="translate(0.00 0) scale(0.05400 -0.05400)" d="M196 0L70 0L70 700L196 700Z" /><path transform="translate(11.96 0) scale(0.05400 -0.05400)" d="M196 0L70 0L70 496L196 496ZM133 554Q99 554 75.5 576Q52 598 52 634Q52 670 75.5 692Q99 714 133 714Q168 714 191 692Q214 670 214 634Q214 598 191 576Q168 554 133 554Z" /><path transform="translate(23.93 0) scale(0.05400 -0.05400)" d="M196 0L70 0L70 496L194 496L194 431L212 431Q224 457 257 480.5Q290 504 357 504Q415 504 458.5 477.5Q502 451 526 404.5Q550 358 550 296L550 0L424 0L424 286Q424 342 396.5 370Q369 398 318 398Q260 398 228 359.5Q196 321 196 252Z" /><path transform="translate(54.79 0) scale(0.05400 -0.05400)" d="M259-8Q201-8 157.5 18.5Q114 45 90 92Q66 139 66 200L66 496L192 496L192 210Q192 154 219.5 126Q247 98 298 98Q356 98 388 136.5Q420 175 420 244L420 496L546 496L546 0L422 0L422 65L404 65Q392 40 359 16Q326-8 259-8Z" /><path transform="translate(85.66 0) scale(0.05400 -0.05400)" d="M174 0L26 0L206 250L28 496L174 496L287 331L305 331L418 496L564 496L386 250L566 0L418 0L305 167L287 167Z" /></g></g>
</svg>
