<svg xmlns="http://www.w3.org/2000/svg" viewBox="0 0 1024 1024" width="1024" height="1024">
  <rect width="1024" height="1024" rx="164" fill="#05080f" />
  <rect x="7" y="7" width="1010" height="1010" rx="157" fill="none" stroke="#60a5fa" stroke-opacity="0.22" stroke-width="4" />
  <g fill="#e2e8f0" transform="translate(289.54400000000004 158.72)"><path transform="translate(0.00 0) scale(0.07200 -0.07200)" d="M198 0L66 0L66 700L198 700Z" /><path transform="translate(18.01 0) scale(0.07200 -0.07200)" d="M360 0L228 0L228 580L24 580L24 700L564 700L564 580L360 580Z" /><path transform="translate(59.34 0) scale(0.07200 -0.07200)" d="" /><path transform="translate(76.63 0) scale(0.07200 -0.07200)" d="M350 0L122 0L30 700L161 700L229 92L247 92L335 700L563 700L651 92L669 92L737 700L868 700L776 0L548 0L458 622L440 622Z" /><path transform="translate(140.29 0) scale(0.07200 -0.07200)" d="M338-14Q206-14 128 58.5Q50 131 50 266L50 434Q50 569 128 641.5Q206 714 338 714Q470 714 548 641.5Q626 569 626 434L626 266Q626 131 548 58.5Q470-14 338-14ZM338 104Q412 104 453 147Q494 190 494 262L494 438Q494 510 453 553Q412 596 338 596Q265 596 223.5 553Q182 510 182 438L182 262Q182 190 223.5 147Q265 104 338 104Z" /><path transform="translate(187.96 0) scale(0.07200 -0.07200)" d="M198 0L66 0L66 700L370 700Q436 700 485 677Q534 654 561 612Q588 570 588 513L588 501Q588 438 558 399Q528 360 484 342L484 324Q524 322 546 296.5Q568 271 568 229L568 0L436 0L436 210Q436 234 423.5 249Q411 264 382 264L198 264ZM198 580L198 384L356 384Q403 384 429.5 409.5Q456 435 456 477L456 487Q456 529 430 554.5Q404 580 356 580Z" /><path transform="translate(232.46 0) scale(0.07200 -0.07200)" d="M198 0L66 0L66 700L198 700L198 422L216 422L443 700L612 700L320 355L622 0L448 0L216 284L198 284Z" /><path transform="translate(276.54 0) scale(0.07200 -0.07200)" d="M522 0L66 0L66 700L516 700L516 580L198 580L198 413L488 413L488 293L198 293L198 120L522 120Z" /><path transform="translate(315.42 0) scale(0.07200 -0.07200)" d="M334 0L46 0L46 116L138 116L138 584L46 584L46 700L334 700Q475 700 548.5 628.5Q622 557 622 416L622 284Q622 143 548.5 71.5Q475 0 334 0ZM270 580L270 120L336 120Q416 120 453 162Q490 204 490 280L490 420Q490 497 453 538.5Q416 580 336 580Z" /><path transform="translate(362.38 0) scale(0.07200 -0.07200)" d="" /><path transform="translate(379.66 0) scale(0.07200 -0.07200)" d="M198 0L66 0L66 700L198 700Z" /><path transform="translate(397.67 0) scale(0.07200 -0.07200)" d="M196 0L66 0L66 700L317 700L456 90L474 90L474 700L604 700L604 0L353 0L214 610L196 610Z" /></g>
  <g fill="#60a5fa" transform="translate(279.46799999999996 250.88)"><path transform="translate(0.00 0) scale(0.07200 -0.07200)" d="M360 0L228 0L228 580L24 580L24 700L564 700L564 580L360 580Z" /><path transform="translate(41.34 0) scale(0.07200 -0.07200)" d="M198 0L66 0L66 700L198 700L198 411L458 411L458 700L590 700L590 0L458 0L458 291L198 291Z" /><path transform="translate(87.57 0) scale(0.07200 -0.07200)" d="M522 0L66 0L66 700L516 700L516 580L198 580L198 413L488 413L488 293L198 293L198 120L522 120Z" /><path transform="translate(126.46 0) scale(0.07200 -0.07200)" d="" /><path transform="translate(143.74 0) scale(0.07200 -0.07200)" d="M309-14Q228-14 166 15Q104 44 69 98Q34 152 34 228L34 256L164 256L164 228Q164 165 203 133.5Q242 102 309 102Q377 102 410.5 129Q444 156 444 198Q444 227 427.5 245Q411 263 379.5 274.5Q348 286 303 296L280 301Q208 317 156.5 341.5Q105 366 77.5 406Q50 446 50 510Q50 574 80.5 619.5Q111 665 166.5 689.5Q222 714 297 714Q372 714 430.5 688.5Q489 663 522.5 612.5Q556 562 556 486L556 456L426 456L426 486Q426 526 410.5 550.5Q395 575 366 586.5Q337 598 297 598Q237 598 208.5 575.5Q180 553 180 514Q180 488 193.5 470Q207 452 234 440Q261 428 303 419L326 414Q401 398 456.5 373Q512 348 543 307Q574 266 574 202Q574 138 541.5 89.5Q509 41 449.5 13.5Q390-14 309-14Z" /><path transform="translate(186.38 0) scale(0.07200 -0.07200)" d="M154 0L18 0L202 700L432 700L616 0L480 0L442 154L192 154ZM308 617L223 276L411 276L326 617Z" /><path transform="translate(231.02 0) scale(0.07200 -0.07200)" d="M196 0L66 0L66 700L317 700L456 90L474 90L474 700L604 700L604 0L353 0L214 610L196 610Z" /><path transform="translate(278.26 0) scale(0.07200 -0.07200)" d="M334 0L46 0L46 116L138 116L138 584L46 584L46 700L334 700Q475 700 548.5 628.5Q622 557 622 416L622 284Q622 143 548.5 71.5Q475 0 334 0ZM270 580L270 120L336 120Q416 120 453 162Q490 204 490 280L490 420Q490 497 453 538.5Q416 580 336 580Z" /><path transform="translate(325.22 0) scale(0.07200 -0.07200)" d="M410 0L46 0L46 116L138 116L138 584L46 584L46 700L406 700Q470 700 517.5 678.5Q565 657 591.5 617.5Q618 578 618 523L618 513Q618 465 600 434.5Q582 404 557.5 387.5Q533 371 511 364L511 346Q533 340 559 323.5Q585 307 603.5 276Q622 245 622 195L622 185Q622 127 595 85.5Q568 44 520.5 22Q473 0 410 0ZM270 292L270 120L394 120Q437 120 463.5 141Q490 162 490 201L490 211Q490 250 464 271Q438 292 394 292ZM270 580L270 412L392 412Q433 412 459.5 433Q486 454 486 491L486 501Q486 539 460 559.5Q434 580 392 580Z" /><path transform="translate(372.02 0) scale(0.07200 -0.07200)" d="M338-14Q206-14 128 58.5Q50 131 50 266L50 434Q50 569 128 641.5Q206 714 338 714Q470 714 548 641.5Q626 569 626 434L626 266Q626 131 548 58.5Q470-14 338-14ZM338 104Q412 104 453 147Q494 190 494 262L494 438Q494 510 453 553Q412 596 338 596Q265 596 223.5 553Q182 510 182 438L182 262Q182 190 223.5 147Q265 104 338 104Z" /><path transform="translate(419.70 0) scale(0.07200 -0.07200)" d="M172 0L22 0L227 353L24 700L174 700L313 447L331 447L470 700L620 700L417 353L622 0L472 0L331 259L313 259Z" /></g>
  <defs><radialGradient id="sandHalo" cx="512" cy="471.04" r="307.2" gradientUnits="userSpaceOnUse"><stop offset="0%" stop-color="#60a5fa" stop-opacity="0.28" /><stop offset="100%" stop-color="#60a5fa" stop-opacity="0" /></radialGradient></defs><circle cx="512.0" cy="471.0" r="307.2" fill="url(#sandHalo)" /><ellipse cx="512" cy="614.4" rx="256.0" ry="51.2" fill="#b8965f" /><g transform="translate(512 606.208) scale(2.048)">
    <path d="M-44 -20 q-22 -8 -28 -30" fill="none" stroke="#8a97ad" stroke-width="16" stroke-linecap="round" /><path d="M44 -20 q22 -8 28 -30" fill="none" stroke="#8a97ad" stroke-width="16" stroke-linecap="round" />
    <rect x="-46" y="-46" width="92" height="70" rx="20" fill="#8a97ad" />
    <rect x="-30" y="-34" width="60" height="46" rx="12" fill="#a7b3c6" opacity="0.5" />
    <path d="M24 -22 A15 15 0 1 0 24 8" fill="none" stroke="#60a5fa" stroke-width="7" stroke-linecap="round" />
    <path d="M-20 24 L-24 50" stroke="#8a97ad" stroke-width="16" stroke-linecap="round" />
    <path d="M20 24 L28 48" stroke="#8a97ad" stroke-width="16" stroke-linecap="round" />
    <line x1="0" y1="-106" x2="0" y2="-130" stroke="#94a3b8" stroke-width="6" stroke-linecap="round" />
    <circle cx="0" cy="-134" r="8" fill="#60a5fa" />
    <rect x="-40" y="-108" width="80" height="62" rx="19" fill="#8a97ad" />
    <rect x="-28" y="-98" width="56" height="30" rx="13" fill="#0e1a30" />
    <circle cx="-15" cy="-83" r="6.5" fill="#60a5fa" /><circle cx="15" cy="-83" r="6.5" fill="#60a5fa" /><circle cx="-13" cy="-85" r="2.4" fill="#ffffff" /><circle cx="17" cy="-85" r="2.4" fill="#ffffff" />
    <circle cx="-27" cy="-60" r="6" fill="#60a5fa" opacity="0.3" />
    <circle cx="27" cy="-60" r="6" fill="#60a5fa" opacity="0.3" />
    <path d="M-11 -59 Q0 -47 11 -59 Z" fill="#12203a" />
  </g><path d="M256.0 839.7 L307.2 614.4 L716.8 614.4 L768.0 839.7 Z" fill="#d6b98c" stroke="#b8965f" stroke-width="4" stroke-linejoin="round" /><g transform="translate(593.9 716.8)"><rect x="0" y="0" width="46" height="34" rx="3" fill="#b8965f" /><rect x="-3" y="-12" width="14" height="14" fill="#b8965f" /><rect x="16" y="-16" width="14" height="18" fill="#b8965f" /><rect x="35" y="-12" width="14" height="14" fill="#b8965f" /><path d="M23 -16 l0 -12 l10 5 Z" fill="#60a5fa" /></g><g transform="translate(337.9 737.3)"><path d="M0 2 L30 2 L26 32 L4 32 Z" fill="#60a5fa" /><path d="M0 2 a15 5 0 0 1 30 0" fill="#1d4ed8" /><path d="M2 -2 a13 9 0 0 1 26 0" fill="none" stroke="#1d4ed8" stroke-width="3" /></g>
  <g transform="translate(650.2 890.5) scale(0.9102222222222223)">
  <g fill="none" stroke="#60a5fa" stroke-linecap="round">
    <path d="M72 18H41C22 18 10 31 10 48S22 78 41 78H72" stroke-width="8" />
    <path d="M65 31H43C33 31 26 38 26 48S33 65 43 65H65" stroke-width="6" opacity="0.72" />
    <path d="M58 43H46C42 43 40 45 40 48S42 53 46 53H58" stroke-width="4" opacity="0.46" />
  </g>
  <path d="M69 13L79 18L69 23Z" fill="#60a5fa" />
  <g fill="#e2e8f0" transform="translate(88 68)"><path transform="translate(0.00 0) scale(0.05400 -0.05400)" d="M303-14Q231-14 172.5 16Q114 46 80 103Q46 160 46 241L46 255Q46 336 80 393Q114 450 172.5 480Q231 510 303 510Q374 510 425 485Q476 460 507.5 416.5Q539 373 549 318L427 292Q423 322 409 346Q395 370 369.5 384Q344 398 306 398Q268 398 237.5 381.5Q207 365 189.5 332.5Q172 300 172 253L172 243Q172 196 189.5 163.5Q207 131 237.5 114.5Q268 98 306 98Q363 98 392.5 127.5Q422 157 430 205L552 176Q539 123 507.5 79.5Q476 36 425 11Q374-14 303-14Z" /><path transform="translate(29.24 0) scale(0.05400 -0.05400)" d="M196 0L70 0L70 700L196 700Z" /><path transform="translate(41.21 0) scale(0.05400 -0.05400)" d="M224-14Q171-14 129 4.5Q87 23 62.5 58.5Q38 94 38 145Q38 196 62.5 230.5Q87 265 130.5 282.5Q174 300 230 300L366 300L366 328Q366 363 344 385.5Q322 408 274 408Q227 408 204 386.5Q181 365 174 331L58 370Q70 408 96.5 439.5Q123 471 167.5 490.5Q212 510 276 510Q374 510 431 461Q488 412 488 319L488 134Q488 104 516 104L556 104L556 0L472 0Q435 0 411 18Q387 36 387 66L387 67L368 67Q364 55 350 35.5Q336 16 306 1Q276-14 224-14ZM246 88Q299 88 332.5 117.5Q366 147 366 196L366 206L239 206Q204 206 184 191Q164 176 164 149Q164 122 185 105Q206 88 246 88Z" /><path transform="translate(70.02 0) scale(0.05400 -0.05400)" d="M319 0L110 0L40 496L165 496L209 85L227 85L291 496L493 496L557 85L575 85L619 496L744 496L674 0L465 0L401 411L383 411Z" /><path transform="translate(109.96 0) scale(0.05400 -0.05400)" d="M270-14Q211-14 159.5 15.5Q108 45 77 102Q46 159 46 240L46 256Q46 337 77 394Q108 451 159 480.5Q210 510 270 510Q315 510 345.5 499.5Q376 489 395 473Q414 457 424 439L442 439L442 700L568 700L568 0L444 0L444 60L426 60Q409 32 373.5 9Q338-14 270-14ZM308 96Q366 96 405 133.5Q444 171 444 243L444 253Q444 325 405.5 362.5Q367 400 308 400Q250 400 211 362.5Q172 325 172 253L172 243Q172 171 211 133.5Q250 96 308 96Z" /></g>
  <g fill="#60a5fa" transform="translate(226 68)"><path transform="translate(0.00 0) scale(0.05400 -0.05400)" d="M196 0L70 0L70 700L196 700Z" /><path transform="translate(11.96 0) scale(0.05400 -0.05400)" d="M196 0L70 0L70 496L196 496ZM133 554Q99 554 75.5 576Q52 598 52 634Q52 670 75.5 692Q99 714 133 714Q168 714 191 692Q214 670 214 634Q214 598 191 576Q168 554 133 554Z" /><path transform="translate(23.93 0) scale(0.05400 -0.05400)" d="M196 0L70 0L70 496L194 496L194 431L212 431Q224 457 257 480.5Q290 504 357 504Q415 504 458.5 477.5Q502 451 526 404.5Q550 358 550 296L550 0L424 0L424 286Q424 342 396.5 370Q369 398 318 398Q260 398 228 359.5Q196 321 196 252Z" /><path transform="translate(54.79 0) scale(0.05400 -0.05400)" d="M259-8Q201-8 157.5 18.5Q114 45 90 92Q66 139 66 200L66 496L192 496L192 210Q192 154 219.5 126Q247 98 298 98Q356 98 388 136.5Q420 175 420 244L420 496L546 496L546 0L422 0L422 65L404 65Q392 40 359 16Q326-8 259-8Z" /><path transform="translate(85.66 0) scale(0.05400 -0.05400)" d="M174 0L26 0L206 250L28 496L174 496L287 331L305 331L418 496L564 496L386 250L566 0L418 0L305 167L287 167Z" /></g></g>
</svg>
